<svg aria-hidden="true" style="position: absolute; width: 0; height: 0; overflow: hidden;" version="1.1" xmlns="http://www.w3.org/2000/svg" xmlns:xlink="http://www.w3.org/1999/xlink">
<defs>

<symbol id="facebook" viewBox="32 0 64 64">
<title>facebook</title>
<path d="M23.999 0.007l-4.15-0.007c-4.662 0-7.675 3.091-7.675 7.875v3.631h-4.172c-0.361 0-0.652 0.292-0.652 0.653v5.261c0 0.361 0.292 0.652 0.652 0.652h4.172v13.275c0 0.361 0.292 0.653 0.652 0.653h5.444c0.361 0 0.652-0.292 0.652-0.652v-13.275h4.878c0.361 0 0.652-0.292 0.652-0.652l0.002-5.261c0-0.173-0.069-0.339-0.191-0.461s-0.289-0.191-0.462-0.191h-4.88v-3.078c0-1.479 0.353-2.23 2.28-2.23l2.795-0.001c0.36 0 0.652-0.292 0.652-0.652v-4.885c0-0.36-0.292-0.652-0.651-0.652z"></path>
</symbol>

<symbol id="linkedin" viewBox="0 0 32 32">
<title>linkedin</title>
<path d="M0.396 10.646h6.875v20.645h-6.875v-20.645z"></path>
<path d="M29.833 12.532c-1.444-1.576-3.354-2.365-5.729-2.365-0.875 0-1.67 0.108-2.386 0.323s-1.319 0.517-1.812 0.906c-0.493 0.389-0.885 0.75-1.177 1.083-0.277 0.316-0.548 0.685-0.813 1.102v-2.936h-6.854l0.021 1c0.014 0.667 0.021 2.722 0.021 6.166s-0.014 7.938-0.042 13.479h6.854v-11.521c0-0.708 0.076-1.271 0.229-1.688 0.292-0.709 0.732-1.302 1.323-1.781s1.323-0.719 2.198-0.719c1.194 0 2.073 0.413 2.635 1.24s0.844 1.969 0.844 3.427v11.041h6.854v-11.833c-0-3.042-0.722-5.351-2.167-6.927z"></path>
<path d="M3.875 0.708c-1.153 0-2.087 0.337-2.802 1.010s-1.073 1.524-1.073 2.552c0 1.014 0.347 1.861 1.042 2.541s1.611 1.021 2.75 1.021h0.042c1.167 0 2.108-0.34 2.823-1.021s1.066-1.528 1.052-2.541c-0.014-1.028-0.368-1.878-1.063-2.552s-1.618-1.010-2.771-1.010z"></path>
</symbol>

<symbol id="twitter" viewBox="0 0 32 32">
<title>twitter</title>
<path d="M32 6.078c-1.19 0.522-2.458 0.868-3.78 1.036 1.36-0.812 2.398-2.088 2.886-3.626-1.268 0.756-2.668 1.29-4.16 1.588-1.204-1.282-2.92-2.076-4.792-2.076-3.632 0-6.556 2.948-6.556 6.562 0 0.52 0.044 1.020 0.152 1.496-5.454-0.266-10.28-2.88-13.522-6.862-0.566 0.982-0.898 2.106-0.898 3.316 0 2.272 1.17 4.286 2.914 5.452-1.054-0.020-2.088-0.326-2.964-0.808v0.072c0 3.188 2.274 5.836 5.256 6.446-0.534 0.146-1.116 0.216-1.72 0.216-0.42 0-0.844-0.024-1.242-0.112 0.85 2.598 3.262 4.508 6.13 4.57-2.232 1.746-5.066 2.798-8.134 2.798-0.538 0-1.054-0.024-1.57-0.090 2.906 1.874 6.35 2.944 10.064 2.944 12.072 0 18.672-10 18.672-18.668 0-0.29-0.010-0.57-0.024-0.848 1.302-0.924 2.396-2.078 3.288-3.406z"></path>
</symbol>

</defs>
</svg>
